<svg width="80" height="60" viewBox="0 0 80 60" fill="none" xmlns="http://www.w3.org/2000/svg">
<path d="M16.875 28.9887C17.7452 26.4586 18.9222 24.0921 20.635 22.0064C23.6309 18.3582 27.4252 16.0427 32.1489 15.3767C34.9818 14.9772 37.7347 15.5022 40.3606 16.5594C41.3962 16.9763 42.3125 17.0376 43.4008 16.7396C51.8152 14.4344 58.4481 18.5748 62.0572 24.9458C62.7821 26.2252 63.3328 27.5807 63.7636 28.9842C63.6456 29.1824 63.4403 29.1879 63.2456 29.2065C63.0296 29.2274 62.8121 29.2191 62.5952 29.2191C47.7458 29.2192 32.8964 29.2204 18.047 29.213C17.6507 29.2128 17.2096 29.3454 16.875 28.9887H16.875Z" fill="#DF2233"/>
<path d="M62.3317 46.0646C57.7093 55.0788 50.2959 60.0291 40.0995 59.9986C29.9788 59.968 22.6283 55.0127 18.0449 46.0647C18.1758 45.8825 18.3776 45.8724 18.5736 45.856C18.7898 45.8378 19.0071 45.8448 19.2239 45.8448C33.2001 45.8447 47.1765 45.8435 61.1527 45.8505C61.5511 45.8508 61.989 45.7264 62.3317 46.0646L62.3317 46.0646Z" fill="#DF2233"/>
<path d="M62.3318 46.065C62.1352 46.0573 61.9386 46.043 61.7419 46.043C47.3729 46.042 33.0038 46.042 18.6348 46.043C18.4381 46.043 18.2415 46.0573 18.0449 46.065C14.9505 46.0599 11.8545 45.9935 8.76171 46.0645C4.42223 46.164 0.783353 43.0295 0.131069 39.0642C-0.80672 33.3631 3.44017 29.1679 8.00487 29.0305C10.9589 28.9418 13.9174 28.9981 16.8741 28.9892C17.1101 28.9987 17.346 29.0168 17.5818 29.0168C32.74 29.018 47.8982 29.018 63.0563 29.0165C63.2918 29.0165 63.5275 28.9958 63.763 28.9846C66.2654 28.9902 68.7692 29.0503 71.2701 28.9899C75.552 28.8864 79.2691 31.9918 79.8912 36.1311C80.7422 41.7926 76.4448 45.989 71.7311 46.0409C68.5983 46.0757 65.465 46.0589 62.3318 46.065Z" fill="#F78D00"/>
<path d="M41.0201 12.1747C41.0925 8.51935 42.9435 5.91178 45.873 3.9179C48.6633 2.01864 51.8036 1.18113 55.1255 0.884031C57.4188 0.678955 59.7329 0.677399 61.9968 0.186344C62.0736 0.169719 62.1525 0.161064 62.2286 0.141464C63.2114 -0.112929 63.2015 -0.115372 62.972 0.896017C61.6284 6.81397 58.0601 10.8079 52.3451 12.9239C50.5882 13.5742 48.741 13.8885 46.9001 14.2136C45.2432 14.5061 43.6448 14.9804 42.1936 15.8495C41.8721 16.0422 41.8146 15.8906 41.712 15.6421C41.2513 14.5252 41.0439 13.3621 41.0201 12.1747Z" fill="#3E9E4E"/>
<path d="M39.9523 30.7911C50.409 30.791 60.8657 30.7898 71.3226 30.7916C74.6349 30.7923 77.305 32.8645 78.0092 36.058C78.8975 40.0868 76.1333 43.7601 72.3015 44.1842C71.8092 44.2387 71.3212 44.2665 70.8288 44.2665C50.1323 44.2668 29.4358 44.2675 8.73925 44.2659C5.43594 44.2657 2.81015 42.2666 2.02548 39.1671C0.941951 34.8871 4.13773 30.7952 8.582 30.793C19.0387 30.7871 29.4954 30.7911 39.9523 30.7911Z" fill="#3E9E4E"/>
<path d="M47.919 37.5922C47.919 36.4399 47.917 35.2877 47.9212 34.1355C47.922 33.9543 47.8537 33.7087 48.1759 33.7192C49.5721 33.7648 50.9769 33.5812 52.3639 33.821C53.5839 34.0319 54.2929 34.7982 54.4892 36.0146C54.6657 37.1077 54.1134 38.248 53.0863 38.7438C52.6176 38.9701 52.6738 39.1478 52.9765 39.442C53.328 39.7839 53.7616 39.8785 54.2258 39.8599C54.5058 39.8488 54.6349 39.941 54.6024 40.2237C54.6002 40.2429 54.6016 40.2628 54.6025 40.2821C54.6561 41.5124 54.329 41.778 53.1119 41.4313C52.1012 41.1435 51.4306 40.4574 50.9972 39.5248C50.8367 39.1799 50.2007 38.9613 49.8784 39.1282C49.7149 39.2128 49.7652 39.3609 49.7637 39.4872C49.7577 39.9949 49.7477 40.5034 49.7661 41.0104C49.7768 41.3107 49.6727 41.4096 49.3643 41.4268C47.9184 41.5072 47.9189 41.5168 47.9189 40.1115C47.9189 39.2718 47.9189 38.432 47.9189 37.5922L47.919 37.5922Z" fill="white"/>
<path d="M5.95525 37.5176C5.95525 36.4037 5.96721 35.2897 5.94815 34.1759C5.94223 33.8323 6.01967 33.7084 6.39975 33.7033C7.99516 33.6821 7.98403 33.6677 8.00119 35.2598C8.00676 35.7782 7.76604 36.4464 8.11558 36.775C8.43327 37.0737 9.09397 36.8568 9.60276 36.8602C11.085 36.8701 11.085 36.8636 11.085 35.3683V35.2509C11.085 33.6316 11.0846 33.6397 12.7563 33.7064C13.0577 33.7186 13.1673 33.795 13.1658 34.1056C13.1553 36.4116 13.1557 38.7177 13.1653 41.0236C13.1666 41.3386 13.0393 41.411 12.7449 41.4255C11.0846 41.5077 11.0909 41.5147 11.0812 39.8569C11.0786 39.392 11.2828 38.7899 10.9997 38.4978C10.6875 38.1756 10.067 38.4014 9.58252 38.395C9.07561 38.3882 8.41905 38.1768 8.09971 38.4835C7.77729 38.793 8.00428 39.4466 7.99977 39.9482C7.98639 41.439 7.9948 41.4183 6.49116 41.4314C6.02523 41.4355 5.93571 41.278 5.94601 40.8592C5.97313 39.7459 5.95525 38.6316 5.95525 37.5176V37.5176Z" fill="white"/>
<path d="M22.5317 37.5241C22.5319 36.3916 22.5298 35.259 22.5338 34.1263C22.5344 33.9457 22.4669 33.7071 22.7906 33.7179C24.1671 33.7634 25.5526 33.5851 26.9195 33.8153C28.1499 34.0227 28.8985 34.8012 29.0584 35.9241C29.2356 37.1673 28.7376 38.2317 27.6475 38.7563C27.1979 38.9729 27.2594 39.138 27.5367 39.4171C27.864 39.7464 28.273 39.8908 28.7165 39.8533C29.1392 39.8177 29.2303 39.9961 29.186 40.3529C29.1716 40.4682 29.1838 40.5869 29.1838 40.704C29.1837 41.5234 29.0737 41.6141 28.2193 41.5174C26.9637 41.3749 26.1455 40.6615 25.6148 39.569C25.4264 39.1811 24.8244 38.9574 24.4603 39.1282C24.2861 39.2099 24.3399 39.3553 24.3379 39.4795C24.3308 39.948 24.3353 40.4168 24.3347 40.8855C24.3346 41.0026 24.3817 41.1741 24.3219 41.2283C23.8779 41.6298 23.3306 41.3441 22.8324 41.4131C22.4896 41.4605 22.5324 41.1917 22.5323 40.9806C22.5312 39.8284 22.5317 38.6763 22.5317 37.5241V37.5241Z" fill="white"/>
<path d="M21.2433 37.5065C21.2707 38.6381 21.1928 39.7519 20.3072 40.5976C19.2102 41.6451 17.8792 41.7402 16.5125 41.3087C15.2352 40.9052 14.6138 39.929 14.4762 38.633C14.3977 37.8937 14.4032 37.1546 14.4723 36.4138C14.6771 34.2123 16.5157 33.274 18.3542 33.5421C20.2334 33.8162 21.2004 34.9703 21.2419 36.8627C21.2467 37.0773 21.2425 37.292 21.2433 37.5065L21.2433 37.5065Z" fill="white"/>
<path d="M62.4747 36.3583C62.4747 37.0225 62.4956 37.6875 62.4707 38.3506C62.397 40.3034 61.1263 41.5063 59.128 41.5371C57.174 41.5671 55.7827 40.3354 55.7073 38.4203C55.6506 36.9769 55.6994 35.5296 55.6877 34.0843C55.6855 33.8129 55.7609 33.7236 56.049 33.7087C57.4947 33.633 57.4941 33.6235 57.4943 35.0619C57.4944 36.0776 57.476 37.0938 57.5001 38.1089C57.5277 39.2615 58.1145 39.9274 59.0613 39.9392C60.0233 39.951 60.6494 39.3035 60.6642 38.2308C60.6824 36.8832 60.6853 35.535 60.6607 34.1875C60.6534 33.7912 60.7853 33.707 61.1598 33.7077C62.4821 33.7102 62.4821 33.6962 62.4821 35.0105C62.4821 35.4599 62.4821 35.9091 62.4821 36.3583H62.4747Z" fill="white"/>
<path d="M40.7922 37.593C40.7922 36.4413 40.8034 35.2896 40.7852 34.1383C40.7801 33.8077 40.8781 33.7042 41.2159 33.7071C42.9493 33.7221 44.6828 33.719 46.4163 33.7091C46.7038 33.7074 46.8252 33.762 46.836 34.088C46.874 35.2494 46.8891 35.2486 45.7328 35.2489C44.9054 35.2489 44.0778 35.2606 43.2508 35.2429C42.9411 35.2363 42.8539 35.3441 42.8381 35.643C42.7673 36.9882 42.7579 36.9876 44.1301 36.9876C44.3665 36.9876 44.6066 37.0139 44.8385 36.9824C45.3663 36.9108 45.5296 37.0901 45.5322 37.6384C45.5349 38.205 45.387 38.3962 44.8127 38.3379C44.306 38.2864 43.7887 38.3442 43.2777 38.3213C42.9346 38.3059 42.8327 38.441 42.8398 38.7641C42.8559 39.5054 42.8316 40.2478 42.8506 40.9889C42.8591 41.3231 42.7354 41.415 42.4068 41.4267C40.7918 41.4844 40.7922 41.4937 40.7922 39.8767C40.7922 39.1153 40.7922 38.3541 40.7922 37.593H40.7922Z" fill="white"/>
<path d="M33.1164 33.7392C34.0237 33.7392 34.9312 33.7521 35.8381 33.7327C36.1757 33.7256 36.2687 33.8373 36.2758 34.167C36.3011 35.3483 36.3141 35.3481 35.1202 35.3481C34.0245 35.3481 34.0245 35.3481 34.0245 36.4537C34.0245 37.9585 34.013 39.4635 34.0326 40.968C34.0374 41.3422 33.9432 41.4665 33.5451 41.4667C32.1857 41.4674 32.1857 41.4843 32.1857 40.1287C32.1857 38.7412 32.1552 37.3527 32.2007 35.9666C32.2186 35.4205 32.034 35.284 31.535 35.3414C31.2237 35.3774 30.8993 35.3115 30.5903 35.3561C30.0345 35.4367 29.9355 35.1897 29.9527 34.6995C29.9864 33.7401 29.9607 33.7392 30.9271 33.7392C31.6569 33.7392 32.3867 33.7392 33.1164 33.7392Z" fill="white"/>
<path d="M66.7884 33.7395C67.6945 33.7395 68.6011 33.7509 69.5069 33.7334C69.8172 33.7275 69.9019 33.8286 69.9124 34.1323C69.9547 35.3485 69.9662 35.3481 68.7428 35.3481C67.6576 35.3481 67.6576 35.3481 67.6576 36.4036C67.6576 37.9261 67.6463 39.4486 67.6658 40.9708C67.6705 41.3438 67.5789 41.4676 67.1809 41.4668C65.8516 41.4641 65.8516 41.4812 65.8516 40.1704C65.8516 38.7259 65.8403 37.2815 65.8592 35.8374C65.864 35.4627 65.769 35.3107 65.3667 35.3401C64.8963 35.3744 64.4215 35.3382 63.949 35.3514C63.6934 35.3587 63.6225 35.2585 63.602 35.0123C63.4955 33.739 63.4879 33.7395 64.7791 33.7395C65.4489 33.7395 66.1187 33.7395 66.7884 33.7395Z" fill="white"/>
<path d="M39.4797 37.6197C39.4797 38.7532 39.4631 39.887 39.4891 41.0198C39.4978 41.3937 39.3765 41.5021 39.021 41.4655C38.4789 41.4097 37.7534 41.698 37.441 41.3457C37.173 41.0436 37.352 40.3434 37.3507 39.8191C37.3461 37.9627 37.3584 36.1061 37.341 34.2498C37.3374 33.8729 37.3857 33.6641 37.8377 33.7133C38.3616 33.7701 39.0507 33.503 39.3759 33.8141C39.7041 34.1279 39.464 34.812 39.4754 35.3332C39.4922 36.0951 39.4797 36.8575 39.4797 37.6197H39.4797Z" fill="white"/>
<path d="M73.0983 37.6201C73.0983 38.7535 73.0815 39.8874 73.1076 41.0203C73.1163 41.3949 72.9934 41.5019 72.6389 41.4654C72.0969 41.4097 71.3712 41.6982 71.059 41.3453C70.7911 41.0427 70.9704 40.3428 70.9692 39.8185C70.9645 37.9621 70.9769 36.1055 70.9594 34.2491C70.9559 33.8714 71.0054 33.6641 71.4567 33.7132C71.9805 33.7701 72.6697 33.5028 72.9947 33.8144C73.3223 34.1282 73.0826 34.8123 73.094 35.3336C73.1108 36.0955 73.0983 36.8579 73.0983 37.6201V37.6201Z" fill="white"/>
<path d="M50.7802 35.2604C51.0742 35.2761 51.3731 35.2643 51.6614 35.3133C52.319 35.4249 52.6231 35.8056 52.6071 36.4453C52.5916 37.0644 52.299 37.4247 51.6503 37.4989C51.1252 37.5591 50.5903 37.5303 50.0599 37.5482C49.8224 37.556 49.7549 37.4362 49.76 37.2242C49.7676 36.9125 49.7616 36.6003 49.7616 36.2883C49.7613 35.274 49.7616 35.274 50.7802 35.2604Z" fill="#3F9F4F"/>
<path d="M24.3336 36.3979C24.3336 35.2731 24.3336 35.271 25.4803 35.2753C25.7358 35.2762 25.9957 35.2707 26.2459 35.3132C26.9133 35.4267 27.1894 35.7773 27.1767 36.4495C27.1648 37.0821 26.8819 37.4062 26.2265 37.5063C25.9942 37.5419 25.7554 37.5451 25.5194 37.5463C24.3336 37.552 24.3336 37.5501 24.3336 36.3979Z" fill="#3F9F4F"/>
<path d="M16.2885 37.5256C16.2857 37.0807 16.2133 36.6309 16.3591 36.1918C16.6056 35.449 17.1278 35.0706 17.8995 35.0956C18.6444 35.1199 19.1934 35.5627 19.3426 36.3167C19.4951 37.0869 19.49 37.8687 19.3549 38.6419C19.2087 39.4792 18.6262 39.9504 17.7994 39.9384C16.9967 39.9268 16.4067 39.4114 16.2961 38.5762C16.2504 38.2316 16.2885 37.8761 16.2885 37.5256H16.2885Z" fill="#3E9E4E"/>
</svg>
